<svg width="20" height="21" viewBox="0 0 20 21" fill="none" xmlns="http://www.w3.org/2000/svg">
<path d="M3.33341 16.8461C2.87508 16.8461 2.48258 16.6827 2.15591 16.3561C1.82925 16.0294 1.66619 15.6372 1.66675 15.1794V5.17937C1.66675 4.72104 1.83008 4.32854 2.15675 4.00187C2.48341 3.6752 2.87564 3.51215 3.33341 3.5127H16.6667C17.1251 3.5127 17.5176 3.67604 17.8442 4.0027C18.1709 4.32937 18.3339 4.72159 18.3334 5.17937V15.1794C18.3334 15.6377 18.1701 16.0302 17.8434 16.3569C17.5167 16.6836 17.1245 16.8466 16.6667 16.8461H3.33341ZM10.0001 10.8669C10.0695 10.8669 10.1426 10.8563 10.2192 10.8352C10.2959 10.8141 10.3687 10.783 10.4376 10.7419L16.3334 7.05437C16.4445 6.98493 16.5278 6.89798 16.5834 6.79354C16.6389 6.68909 16.6667 6.57465 16.6667 6.4502C16.6667 6.17243 16.5487 5.96409 16.3126 5.8252C16.0765 5.68631 15.8334 5.69326 15.5834 5.84604L10.0001 9.34604L4.41675 5.84604C4.16675 5.69326 3.92369 5.68993 3.68758 5.83604C3.45147 5.98215 3.33341 6.18687 3.33341 6.4502C3.33341 6.58909 3.36119 6.71076 3.41675 6.8152C3.4723 6.91965 3.55564 6.99937 3.66675 7.05437L9.56258 10.7419C9.63203 10.7836 9.70508 10.815 9.78175 10.8361C9.85841 10.8572 9.93119 10.8675 10.0001 10.8669Z" fill="#646262"/>
</svg>
