<svg width="20" height="21" viewBox="0 0 20 21" fill="none" xmlns="http://www.w3.org/2000/svg">
<path d="M5.51667 9.17136C6.71667 11.5297 8.65 13.4547 11.0083 14.663L12.8417 12.8297C13.0667 12.6047 13.4 12.5297 13.6917 12.6297C14.625 12.938 15.6333 13.1047 16.6667 13.1047C17.125 13.1047 17.5 13.4797 17.5 13.938V16.8464C17.5 17.3047 17.125 17.6797 16.6667 17.6797C8.84167 17.6797 2.5 11.338 2.5 3.51302C2.5 3.05469 2.875 2.67969 3.33333 2.67969H6.25C6.70833 2.67969 7.08333 3.05469 7.08333 3.51302C7.08333 4.55469 7.25 5.55469 7.55833 6.48802C7.65 6.77969 7.58333 7.10469 7.35 7.33802L5.51667 9.17136Z" fill="#646262"/>
</svg>
