<svg width="16" height="16" viewBox="0 0 16 16" fill="none" xmlns="http://www.w3.org/2000/svg">
<path d="M7.99996 2.66675C8.7072 2.66675 9.38548 2.9477 9.88558 3.4478C10.3857 3.94789 10.6666 4.62617 10.6666 5.33341C10.6666 6.04066 10.3857 6.71894 9.88558 7.21903C9.38548 7.71913 8.7072 8.00008 7.99996 8.00008C7.29272 8.00008 6.61444 7.71913 6.11434 7.21903C5.61424 6.71894 5.33329 6.04066 5.33329 5.33341C5.33329 4.62617 5.61424 3.94789 6.11434 3.4478C6.61444 2.9477 7.29272 2.66675 7.99996 2.66675ZM7.99996 4.00008C7.64634 4.00008 7.3072 4.14056 7.05715 4.39061C6.8071 4.64065 6.66663 4.97979 6.66663 5.33341C6.66663 5.68704 6.8071 6.02618 7.05715 6.27622C7.3072 6.52627 7.64634 6.66675 7.99996 6.66675C8.35358 6.66675 8.69272 6.52627 8.94277 6.27622C9.19282 6.02618 9.33329 5.68704 9.33329 5.33341C9.33329 4.97979 9.19282 4.64065 8.94277 4.39061C8.69272 4.14056 8.35358 4.00008 7.99996 4.00008ZM7.99996 8.66675C9.77996 8.66675 13.3333 9.55341 13.3333 11.3334V13.3334H2.66663V11.3334C2.66663 9.55341 6.21996 8.66675 7.99996 8.66675ZM7.99996 9.93341C6.01996 9.93341 3.93329 10.9067 3.93329 11.3334V12.0667H12.0666V11.3334C12.0666 10.9067 9.97996 9.93341 7.99996 9.93341Z" fill="white"/>
</svg>
