<svg width="40" height="40" viewBox="0 0 40 40" fill="none" xmlns="http://www.w3.org/2000/svg">
<rect width="40" height="40" fill="#1E1E1E"/>
<g id="Rectangle 131" filter="url(#filter0_i_1028_2)">
<rect x="-955" y="-5483" width="5040" height="33718" rx="300" fill="#D9D9D9" fill-opacity="0.15"/>
</g>
<g id="Desktop - Full" clip-path="url(#clip0_1028_2)">
<rect width="1440" height="13659" transform="translate(-204 -3205)" fill="white"/>
<g id="Group 48095934">
<g id="Group 48095933">
<g id="Group 48095931">
<g id="Group 202">
<path id="Vector" d="M40.0008 19.9996C40.0008 25.3418 37.9204 30.3648 34.1422 34.1422C30.3648 37.9196 25.3426 40 20.0004 40C14.6582 40 9.63597 37.9196 5.85855 34.1422C2.08035 30.3648 0 25.3418 0 19.9996C0 14.6574 2.08035 9.63519 5.85855 5.85777C9.63597 2.08035 14.6582 0 20.0004 0C25.3426 0 30.3648 2.08035 34.1422 5.85777C37.9204 9.63519 40.0008 14.6574 40.0008 19.9996Z" fill="#B29CD8"/>
<path id="Vector_2" d="M40.0008 19.9996C40.0008 25.3418 37.9204 30.3648 34.1422 34.1422C30.3648 37.9196 25.3426 40 20.0004 40V0C25.3426 0 30.3648 2.08035 34.1422 5.85777C37.9204 9.63519 40.0008 14.6574 40.0008 19.9996Z" fill="#A58ECD"/>
<path id="Vector_3" d="M33.1938 19.9996C33.1938 27.2751 27.275 33.1931 20.0003 33.1931C12.7256 33.1931 6.80676 27.2751 6.80676 19.9996C6.80676 12.7248 12.7255 6.80603 20.0003 6.80603C27.2751 6.80603 33.1938 12.7248 33.1938 19.9996Z" fill="#4B2E7E"/>
<path id="Vector_4" d="M33.1939 19.9996C33.1939 27.2751 27.275 33.1931 20.0004 33.1931V6.80603C27.2751 6.80603 33.1939 12.7248 33.1939 19.9996Z" fill="#3F2173"/>
<path id="Vector_5" d="M26.3128 17.2371L20.0004 23.3813L18.8668 24.4844C18.8535 24.4977 18.8393 24.5086 18.8253 24.5212C18.8112 24.5337 18.7978 24.547 18.783 24.5588C18.7674 24.5713 18.7509 24.5822 18.7345 24.594C18.7189 24.605 18.7039 24.6167 18.6883 24.6269C18.6719 24.6379 18.6539 24.6472 18.6367 24.6575C18.621 24.6668 18.6053 24.677 18.5889 24.6857C18.571 24.6951 18.5521 24.7029 18.5342 24.7107C18.5178 24.7185 18.5021 24.7263 18.4857 24.7326C18.4661 24.7404 18.4465 24.7466 18.4262 24.7536C18.4106 24.7591 18.3949 24.7654 18.3792 24.7701C18.3574 24.7763 18.3354 24.781 18.3135 24.7857C18.2987 24.7888 18.2846 24.7935 18.2705 24.7958C18.2447 24.8013 18.2196 24.8036 18.1938 24.8068C18.1821 24.8083 18.1712 24.8107 18.1594 24.8122C18.1226 24.8154 18.0851 24.8177 18.0483 24.8177C18.0475 24.8177 18.0475 24.8177 18.0475 24.8177C18.0099 24.8177 17.9724 24.8154 17.9341 24.8115C17.9224 24.8107 17.9106 24.8083 17.8988 24.8068C17.8731 24.8036 17.8472 24.8005 17.8214 24.7951C17.8074 24.7927 17.7932 24.788 17.7792 24.7849C17.7565 24.7794 17.733 24.7747 17.7111 24.7685C17.6955 24.7638 17.6798 24.7576 17.6649 24.7521C17.6438 24.7451 17.6234 24.738 17.6031 24.7302C17.5867 24.7232 17.5702 24.7154 17.5546 24.7076C17.5359 24.699 17.5163 24.6904 17.4983 24.681C17.4819 24.6724 17.4662 24.6622 17.4498 24.652C17.4326 24.6418 17.4145 24.6325 17.3973 24.6207C17.3817 24.6105 17.366 24.598 17.3504 24.5862C17.3348 24.5744 17.3183 24.5628 17.3027 24.5502C17.287 24.5377 17.2729 24.5236 17.258 24.5103C17.2448 24.4978 17.2306 24.4868 17.2181 24.4735L13.677 20.9323C13.2185 20.4747 13.2185 19.7314 13.677 19.2728C14.1354 18.8143 14.8787 18.8144 15.3364 19.2728L18.0592 21.9948L20.0004 20.1053L24.6752 15.5557C25.14 15.1035 25.8832 15.1137 26.3347 15.5776C26.787 16.0424 26.7768 16.7857 26.3128 17.2371Z" fill="white"/>
<path id="Vector_6" d="M26.3128 17.2371L20.0004 23.3813V20.1053L24.6751 15.5557C25.1399 15.1035 25.8831 15.1137 26.3346 15.5776C26.7869 16.0424 26.7767 16.7857 26.3128 17.2371Z" fill="#EFEFEF"/>
</g>
</g>
</g>
</g>
</g>
<defs>
<filter id="filter0_i_1028_2" x="-955" y="-5483" width="5040" height="33968" filterUnits="userSpaceOnUse" color-interpolation-filters="sRGB">
<feFlood flood-opacity="0" result="BackgroundImageFix"/>
<feBlend mode="normal" in="SourceGraphic" in2="BackgroundImageFix" result="shape"/>
<feColorMatrix in="SourceAlpha" type="matrix" values="0 0 0 0 0 0 0 0 0 0 0 0 0 0 0 0 0 0 127 0" result="hardAlpha"/>
<feOffset dy="250"/>
<feGaussianBlur stdDeviation="125"/>
<feComposite in2="hardAlpha" operator="arithmetic" k2="-1" k3="1"/>
<feColorMatrix type="matrix" values="0 0 0 0 0 0 0 0 0 0 0 0 0 0 0 0 0 0 0.5 0"/>
<feBlend mode="normal" in2="shape" result="effect1_innerShadow_1028_2"/>
</filter>
<clipPath id="clip0_1028_2">
<rect width="1440" height="13659" fill="white" transform="translate(-204 -3205)"/>
</clipPath>
</defs>
</svg>
