<?xml version="1.0" encoding="utf-8"?>
<!-- Generator: Adobe Illustrator 24.1.1, SVG Export Plug-In . SVG Version: 6.00 Build 0)  -->
<svg version="1.1" id="OBJECTS" xmlns="http://www.w3.org/2000/svg" xmlns:xlink="http://www.w3.org/1999/xlink" x="0px" y="0px"
	 viewBox="0 0 80.2 80.2" style="enable-background:new 0 0 80.2 80.2;" xml:space="preserve">
<style type="text/css">
	.st0{fill:#44678D;}
	.st1{fill:#FFFFFF;}
</style>
<g>
	<path class="st0" d="M56,80.2H24.2C10.8,80.2,0,69.4,0,56V24.2C0,10.8,10.8,0,24.2,0H56c13.4,0,24.2,10.8,24.2,24.2V56
		C80.2,69.4,69.4,80.2,56,80.2z"/>
	<path class="st1" d="M20.8,24.4c1.9,4.7,4.4,9.2,7.6,13.2c0.4,0.5,1,1,1.5,1.4c0.8,0.6,1.6,0.4,1.9-0.6c0.4-1,0.7-3,0.7-4
		c0.1-2.7,0-4.5-0.2-7.2c-0.1-1.7-0.7-3.3-3.3-3.7c-0.8-0.1-0.9-0.8-0.4-1.4c1.1-1.4,2.5-1.6,4.1-1.7c2.6-0.1,5.2,0,7.8,0
		c1.1,0,2.1,0.1,3.2,0.3c1.4,0.3,2.1,1.2,2.3,2.6c0.1,0.7,0.2,1.4,0.2,2.1c-0.1,3-0.2,5.9-0.2,8.9c0,1.2,0.1,2.4,0.3,3.5
		c0.3,1.6,1.4,2,2.5,0.8c1.4-1.4,2.6-3.1,3.8-4.7c2.1-3,3.7-6.3,5-9.7c0.7-1.8,1.2-2.1,3.1-2.1c3.6,0,7.1,0,10.7,0
		c0.6,0,1.3,0.1,1.9,0.3c1,0.3,1.4,1.1,1.1,2.1c-0.5,2.3-1.8,4.3-3.2,6.3c-2.2,3.1-4.5,6.1-6.7,9.1c-0.3,0.4-0.5,0.8-0.8,1.2
		c-0.8,1.5-0.8,2.4,0.4,3.6c1.9,2,4,3.9,5.9,5.9c1.4,1.5,2.6,3.1,3.7,4.8c1.4,2.2,0.5,4.2-2,4.5c-1.6,0.2-9.4,0-9.8,0
		c-2.1,0-4-0.7-5.4-2.2c-1.7-1.6-3.2-3.3-4.7-5c-0.5-0.5-1-1-1.5-1.4c-1.3-1-2.6-0.8-3.2,0.8c-0.5,1.3-1,4.8-1,5
		c-0.1,1.5-1.1,2.5-2.8,2.6c-5,0.3-9.8-0.3-14.3-2.7c-3.8-2-6.8-4.9-9.5-8.3c-4.2-5.3-7.5-11.2-10.5-17.2c-0.2-0.3-3.2-6.8-3.3-7.1
		c-0.3-1,0-2,0.8-2.3c0.5-0.2,10.6,0,10.8,0C19,22.1,20.1,22.7,20.8,24.4z"/>
</g>
</svg>
