<?xml version="1.0" encoding="utf-8"?>
<!-- Generator: Adobe Illustrator 24.1.1, SVG Export Plug-In . SVG Version: 6.00 Build 0)  -->
<svg version="1.1" id="OBJECTS" xmlns="http://www.w3.org/2000/svg" xmlns:xlink="http://www.w3.org/1999/xlink" x="0px" y="0px"
	 viewBox="0 0 80.2 80.2" style="enable-background:new 0 0 80.2 80.2;" xml:space="preserve">
<style type="text/css">
	.st0{fill:#0084FF;}
	.st1{fill:#FFFFFF;}
</style>
<g>
	<path class="st0" d="M56,80.2H24.2C10.8,80.2,0,69.4,0,56V24.2C0,10.8,10.8,0,24.2,0H56c13.4,0,24.2,10.8,24.2,24.2V56
		C80.2,69.4,69.4,80.2,56,80.2z"/>
	<path class="st1" d="M39.8,10.2c-16.4,0-29.7,12.4-29.7,27.7c0,8.7,4.3,16.5,11.1,21.5V70l10.1-5.6c2.7,0.8,5.6,1.2,8.5,1.2
		c16.4,0,29.7-12.4,29.7-27.7C69.5,22.6,56.2,10.2,39.8,10.2z M42.8,47.5l-7.6-8.1l-14.8,8.1l16.2-17.3l7.7,8.1L59,30.1L42.8,47.5z"
		/>
</g>
</svg>
