<?xml version="1.0" encoding="utf-8"?>
<!-- Generator: Adobe Illustrator 24.1.1, SVG Export Plug-In . SVG Version: 6.00 Build 0)  -->
<svg version="1.1" id="OBJECTS" xmlns="http://www.w3.org/2000/svg" xmlns:xlink="http://www.w3.org/1999/xlink" x="0px" y="0px"
	 viewBox="0 0 80.2 80.2" style="enable-background:new 0 0 80.2 80.2;" xml:space="preserve">
<style type="text/css">
	.st0{fill:url(#SVGID_1_);}
	.st1{fill:#C8DAEA;}
	.st2{fill:#A9C9DD;}
	.st3{fill:url(#path2991_2_);}
</style>
<g>
	<linearGradient id="SVGID_1_" gradientUnits="userSpaceOnUse" x1="0" y1="40.0937" x2="80.1875" y2="40.0937">
		<stop  offset="0" style="stop-color:#37AEE2"/>
		<stop  offset="1" style="stop-color:#1E96C8"/>
	</linearGradient>
	<path class="st0" d="M56,80.2H24.2C10.8,80.2,0,69.4,0,56V24.2C0,10.8,10.8,0,24.2,0H56c13.4,0,24.2,10.8,24.2,24.2V56
		C80.2,69.4,69.4,80.2,56,80.2z"/>
	<g>
		<path class="st1" d="M63.5,17.7l-48,18.5c-3.3,1.3-3.2,3.2-0.6,3.9L27.2,44l4.2,13.9c0.6,1.5,0.3,2.2,1.9,2.2
			c1.2,0,1.8-0.6,2.5-1.2c0.4-0.4,3.1-3,6-5.8l12.5,9.2c2.3,1.2,3.9,0.6,4.5-2.1L67,21.5C67.8,18.2,65.7,16.7,63.5,17.7z"/>
		<path id="path2989_1_" class="st2" d="M33.4,60.1c1.2,0,1.8-0.6,2.5-1.2c0.5-0.5,5.9-5.8,5.9-5.8l-7.7-5.7l-0.7,12.3V60.1z"/>
		
			<linearGradient id="path2991_2_" gradientUnits="userSpaceOnUse" x1="-184.4468" y1="72.8469" x2="-183.4498" y2="74.442" gradientTransform="matrix(10.4167 0 0 10.4167 1967.4697 -720.03)">
			<stop  offset="0" style="stop-color:#EFF7FC"/>
			<stop  offset="1" style="stop-color:#FFFFFF"/>
		</linearGradient>
		<path id="path2991_1_" class="st3" d="M34.1,47.4l20.1,14.8c2.3,1.2,3.9,0.6,4.5-2.1l8.2-38.5c0.8-3.4-1.3-4.9-3.5-3.9l-48,18.5
			c-3.3,1.3-3.2,3.2-0.6,3.9L27.2,44l28.5-18c1.3-0.8,2.6-0.4,1.6,0.5L34.1,47.4z"/>
	</g>
</g>
</svg>
