<svg width="21" height="21" viewBox="0 0 21 21" fill="none" xmlns="http://www.w3.org/2000/svg">
<path d="M0.5 2.95117C0.5 2.16847 0.80102 1.41783 1.33684 0.864378C1.87266 0.310926 2.59938 0 3.35714 0H17.6429C18.4006 0 19.1273 0.310926 19.6632 0.864378C20.199 1.41783 20.5 2.16847 20.5 2.95117V17.707C20.5 18.4897 20.199 19.2404 19.6632 19.7938C19.1273 20.3473 18.4006 20.6582 17.6429 20.6582H3.35714C2.59938 20.6582 1.87266 20.3473 1.33684 19.7938C0.80102 19.2404 0.5 18.4897 0.5 17.707V2.95117Z" fill="#4B2E7E"/>
<path d="M16.8094 11.0729C16.9375 10.9354 17.0091 10.7521 17.0091 10.5612C17.0091 10.3704 16.9375 10.1871 16.8094 10.0496L13.1572 6.13117C12.7108 5.65235 11.928 5.97845 11.928 6.64246V8.90232C11.928 8.95124 11.9091 8.99816 11.8757 9.03275C11.8422 9.06734 11.7968 9.08677 11.7494 9.08677H4.78582C4.59638 9.08677 4.4147 9.1645 4.28074 9.30287C4.14679 9.44123 4.07153 9.62889 4.07153 9.82456V11.3001C4.07153 11.4958 4.14679 11.6835 4.28074 11.8218C4.4147 11.9602 4.59638 12.0379 4.78582 12.0379H11.7501C11.7975 12.0379 11.8429 12.0574 11.8764 12.092C11.9099 12.1266 11.9287 12.1735 11.9287 12.2224V14.4822C11.9287 15.1463 12.7115 15.4724 13.1572 14.9935L16.8094 11.0736V11.0729Z" fill="white"/>
</svg>
